<svg id="Camada_1" data-name="Camada 1" xmlns="http://www.w3.org/2000/svg" viewBox="0 0 794.57 830.57">
  <g>
    <path d="M397.43,18.66c1,1.73,2.94,2.06,4.52,2.85q58.8,29.64,117.62,59.23c1.58.79,3.44,1.22,4.93,3.3-7.52,4-14.91,8-22.31,12q-48.63,26-97.26,52c-2.18,1.16-3.95,1.69-6.42.44Q335.11,116.3,271.6,84.33c-.71-.36-1.37-.84-2.28-1.41,1.27-2,3.28-2.42,5-3.26Q332.5,50.5,390.74,21.41c1.62-.81,3.13-1.83,4.69-2.75Z" fill="#fff"/>
    <path d="M263.62,577.63V351.38c1.92-.23,3.1.86,4.39,1.51q48.58,24.47,97.17,48.94c2.93,1.47,4,3.13,4,6.46q-.15,202.2-.08,404.39v1.44c-1.16,1-1.89,0-2.67-.45-28.14-17.19-56-34.79-84.5-51.44-16.49-9.65-26.86-24-35.34-40.3q-46-88.41-91.91-176.85-18.08-34.77-36.17-69.55c-.68-1.3-1.42-2.57-2.76-5V681.08c-2.33.52-3.59-.81-5-1.56Q68,656.75,25.3,633.93c-2.4-1.27-3.69-2.52-3.69-5.59q.13-199.7.09-399.39c0-.49.08-1,.12-1.52,1.88-.45,3.17.86,4.58,1.58,27.74,14.14,55.42,28.39,83.19,42.45,7.37,3.73,12.65,8.66,16.32,16.5q67,142.94,134.53,285.59c.68,1.45,1.46,2.87,2.19,4.3Z" fill="#fff"/>
    <path d="M424.42,816.91v-5.28q0-83.19-.07-166.38c0-3.22.79-5,3.82-6.53q74.37-37,148.61-74.18c1.16-.58,2.37-1,3.56-1.56,1.2,1.54.68,3.08.68,4.48q.13,83.44.25,166.88c0,2.8-.17,4.79-3.27,6.33q-74.19,36.78-148.25,73.86C428.29,815.25,426.78,815.86,424.42,816.91Z" fill="#fff"/>
    <path d="M580.51,327.06v5.48q.09,81.43.28,162.87c0,4-1.18,6.15-4.85,8q-73.37,36.21-146.61,72.71c-1.45.71-2.95,1.32-4.91,2.18v-5.49q0-81.93-.11-163.87c0-4,1.33-5.75,4.75-7.45Q501.94,365.38,574.73,329C576.44,328.18,578,326.74,580.51,327.06Z" fill="#fff"/>
    <path d="M635.36,711.72V706c0-55,.06-109.92-.11-164.87,0-4.32,1.41-6.37,5.18-8.25q62-31,123.89-62.39c4.83-2.44,4.86-2.42,4.86,3q0,83.68,0,167.37c0,2.64-.26,4.49-3.12,5.91q-63.95,31.71-127.74,63.69C637.64,710.84,636.88,711.1,635.36,711.72Z" fill="#fff"/>
    <path d="M635.22,473v-4.78q0-82.23,0-164.44c0-2.9,0-5.17,3.36-6.83Q702.37,265.58,766,233.83c.72-.36,1.51-.61,2.29-.93,1.49,1.26.81,2.86.82,4.21q.06,82.23.08,164.45c0,2.87-.39,4.75-3.39,6.26q-63.32,31.89-126.47,64.06C638.22,472.46,637.16,473.41,635.22,473Z" fill="#fff"/>
    <path d="M539.37,282c-1.17,2-3.25,2.48-5,3.34q-67.54,34-135.11,67.9c-2.42,1.22-4.44,2-7.35.54q-65.2-33-130.56-65.77c-.86-.44-1.66-1-3.06-1.84l36.08-18.92q50.87-26.58,101.72-53.19c2.65-1.39,4.87-2,7.87-.49q66.35,33.57,132.79,66.91C537.66,281,538.48,281.51,539.37,282Z" fill="#fff"/>
    <path d="M59.83,186.49l33.86-16.9q53.81-26.84,107.58-53.73c3.19-1.6,5.76-1.81,9.15-.09q61.85,31.42,123.87,62.5c1.46.73,2.9,1.51,5,2.61-8.25,4.36-15.92,8.45-23.62,12.48q-57.74,30.16-115.45,60.33c-2.33,1.22-4.18,1.79-6.87.43q-65-32.94-130.11-65.62C62.39,188.06,61.57,187.52,59.83,186.49Z" fill="#fff"/>
    <path d="M730.77,186.63c-2,1.05-3.11,1.7-4.27,2.28q-60,30.1-119.93,60.24c-2.54,1.28-4.65,1.74-7.43.33q-66.55-33.63-133.2-67.08c-.84-.43-1.61-1-3.12-1.92,9.82-5.22,19-10.12,28.18-15,30.44-16.07,60.92-32.07,91.29-48.29,3.59-1.92,6.28-2.11,10-.23q66.59,33.61,133.34,66.88C727.1,184.59,728.52,185.41,730.77,186.63Z" fill="#fff"/>
  </g>
</svg>
