<?xml version="1.0" encoding="utf-8"?>
<!-- Generator: Adobe Illustrator 26.2.1, SVG Export Plug-In . SVG Version: 6.00 Build 0)  -->
<svg version="1.1" id="Camada_1" xmlns="http://www.w3.org/2000/svg" xmlns:xlink="http://www.w3.org/1999/xlink" x="0px" y="0px"
	 viewBox="0 0 610.7 610.7" style="enable-background:new 0 0 610.7 610.7;" xml:space="preserve">
<style type="text/css">
	.st0{fill:#E3741B;}
	.st1{fill:#B9B8B8;}
</style>
<g>
	<path class="st0" d="M577.7,319.4c-6.7-1.9-15.8-4.8-25-6.8c-6.8-1.5-10-4.5-11-11.9c-1.5-11.5-2.3-11.4,8.7-8.4
		c5.1,1.4,10.2,2.8,15.4,4c1.1,0.1,2.3,0.1,3.4-0.2c-0.2-1.1-0.5-2.2-0.9-3.2c-4.7-8.6-9.3-17.2-14.1-25.7c-1.7-2.9-1.6-4.8,0.9-7.3
		c7.9-8.3,15.4-17,23-25.5c0.6-0.9,1.2-1.9,1.6-2.9c-1.1-0.1-2.3,0-3.4,0.1c-10.8,2.8-21.6,5.5-32.3,8.5c-3.5,1-5.7,0.5-7.7-3
		c-4.9-8.5-10.3-16.6-15.6-24.9c-0.7-0.9-1.5-1.7-2.3-2.4c-0.4,1.1-0.7,2.1-1,3.2c-2,10.8-4.2,21.5-5.9,32.4
		c-0.6,3.7-3.2,4.3-5.9,5.2c-11,3.4-21.9,6.6-32.9,9.9c-0.9,0.3-1.7,0.8-2.5,1.2c0.7,0.6,1.5,1.1,2.4,1.6c7.9,3.1,15.9,6.1,23.8,9
		c3.5,1.3,4,2.7,0.5,4.7c-2.6,1.5-5.4,2.8-7.5,4.8c-7.6,7.2-15.1,6-23.4,1.2c-6-3.5-13-5.4-18.6-9.4c-10.8-7.8-9-19.2,3.6-24
		c9.3-3.5,18.8-7,28.6-8.8c11.7-2.2,18.2-7.1,18.1-19.9c0-6.9,2.1-13.8,3.6-20.6c0.8-3.4,2-6.6,3.7-9.7c5.7-10.8,17.7-11.2,24.2-0.9
		c6,9.4,12,18.6,17.9,28.1c1.6,2.6,3.2,3.1,6.1,2.3c13.2-3.5,26.4-6.7,39.6-10c0.3-0.1,0.6-0.2,0.9-0.3c6.6-1.7,13.2-0.1,15.6,3.6
		c2.6,4.1,1.5,9.5-3.6,15.4c-8.7,10-17.4,20.1-26.5,29.8c-3.8,4.1-3.6,7.4-1,11.9c5.3,9.2,10.2,18.6,15,28.1
		C598.8,309.4,592.5,319.4,577.7,319.4z"/>
	<path class="st1" d="M322.7,340.7c-0.1,23.8-18.8,45.1-40.7,49.4c-10.9,2.1-21.2,1.2-30.9-4.3c-3-1.7-4.1-0.9-4.5,2.3
		c-1,7.4-2.2,14.8-3,22.2c-0.3,3.1-1.5,4.4-4.7,4.2c-3.8-0.2-7.7-0.2-11.5,0c-2.9,0.1-3.5-1.1-3.1-3.6c2.4-17.1,4.9-34.2,7.2-51.4
		c1.2-9.4,2.2-18.7,7-27.3c12.1-21.7,41.2-33.5,63.4-22.4C315.6,316.7,321.9,328.1,322.7,340.7z M280.9,324.5
		c-15.2,0.1-28.6,12.8-28.6,26.9c0,12.2,9.6,21.3,22.2,21.2c15-0.1,28.3-12.9,28.3-27.3C302.8,333.3,293.4,324.3,280.9,324.5z"/>
	<path class="st0" d="M0.1,335.5c0-16.6,0.1-33.3,0-49.9c0-6.3,0.2-6.9,6.4-6.9c10.5,0,21-0.2,31.5,0c11.7,0.2,22.1,3.7,28.8,14
		c2.4,3.5,3.8,7.6,4.3,11.9c0.5,7.7,0.9,15.8-0.6,23.2c-2.4,12.1-11.1,19.5-22.9,22.4c-6.2,1.5-12.8,1.8-19.3,2.1
		c-4.1,0.2-5.6,1.6-5.6,5.7c0.2,10-0.1,20,0.2,30c0.1,3.8-1.4,4.6-4.6,4.5c-4.3-0.3-8.7-0.3-13,0c-4.2,0.4-5.1-1.4-5.1-5.1
		c0.1-14,0-28,0-42v-10L0.1,335.5z M22.8,314.8L22.8,314.8c-0.1,4.7-0.2,9.3,0,14c0,1.1,1.4,3.1,2,3.1c5.9-0.6,12.1-0.5,17.4-2.7
		c6.9-2.9,9.1-11.6,6.8-20.4c-1.5-6-6.2-9.3-13.9-9.8c-2.8-0.2-5.7,0-8.5-0.2c-2.8-0.2-3.9,0.9-3.8,3.7
		C22.9,306.5,22.8,310.6,22.8,314.8L22.8,314.8z"/>
	<path class="st1" d="M183.3,392.2c-15.7-0.4-25-6.6-30.7-20.5c-1.1-2.7-1-4.1,1.9-5.4c4.7-2.1,9.3-4.5,13.7-7.1
		c2.8-1.6,4-1.5,5.4,1.8c4.5,10.3,13.8,13.6,22.8,8.6c7.8-4.3,9.5-11.4,3.8-18.2c-3.8-4.6-8.4-8.6-12.4-13
		c-4.4-4.5-8.5-9.3-12.4-14.3c-5.9-8-6.6-16.7-2.5-25.9c8.9-19.7,36.8-28.3,53.8-16.4c0.5,0.4,1.1,0.7,1.6,1.1
		c10.6,8.7,10.6,10.3-0.3,18.1l-1.2,0.9c-2.4,1.7-4.8,4.6-7.4,4.7c-1.7,0.1-3.6-3.7-5.5-5.6c-4.6-4.8-10.4-6-15.9-3.2
		c-6.2,3.1-7.6,8-2.9,13.2c5.8,6.7,11.9,13,18.4,19c26.6,23.9,5.3,53.9-17,59.9C192.1,391,187.7,391.5,183.3,392.2z"/>
	<path class="st1" d="M540.1,389c-9.8,2.8-14.8-2.6-19.4-10.3c-5.8-9.5-12.5-18.4-18.9-27.6c-1.2-1.4-2.5-2.7-4-3.8
		c-0.7,1.8-1.3,3.6-1.7,5.5c-1.6,10.9-3.2,21.7-4.6,32.6c-0.4,2.7-1.1,3.7-4,3.6c-4.8-0.2-9.7-0.1-14.5,0c-2.4,0-3.2-0.7-2.8-3.3
		c3.8-26.5,8.2-53,10.7-79.6c1-10.4,5.4-15.9,13.9-19.9c1.4-0.6,2.5-1.6,3.8-2.3c2.3-1.2,4.6-2.2,6.9-3.4c-0.2,2.6-0.2,5.2-0.5,7.8
		c-1.4,11-3,22.1-4.4,33.1c0,1.2,0.1,2.5,0.4,3.7c1.1-0.5,2.2-1.2,3.1-2c9.1-9.5,18.1-19.1,27.1-28.6c0.9-0.8,1.9-1.5,3-2.2
		c0.2,1.1,0.5,2.1,0.8,3.2c0.6,3.1,0.8,6.4,1.9,9.3c2,5-0.2,8-3.6,11.1c-5.7,5.4-11,11.2-16.6,16.6c-2.5,2.4-2.3,4-0.3,6.6
		c11.5,15.1,22.7,30.3,34,45.6c0.8,1.2,1.4,2.4,2,3.7c-1.4,0.2-2.9,0.5-4.3,0.5C545.4,389.1,542.8,389,540.1,389z"/>
	<path class="st0" d="M87.1,305.6c11.2,0,11.5-0.1,14.6,10.1c4.9,16.4,9.3,32.9,13.9,49.3c0.1,0.4,0.2,0.9,0.4,1.4
		c0.4-0.6,0.8-1.2,1.1-1.8c3.2-10.8,6.3-21.7,9.4-32.5c2.1-7.3,4.4-14.6,6.5-22c0.9-3.1,2.4-4.8,6-4.6c4.8,0.2,9.6,0.1,14.5,0
		c3-0.1,4.4,0.5,3.1,4c-8.6,24.4-16.9,48.9-25.5,73.3c-3.5,10-7,20.1-11.2,29.8c-3,7-8.3,13-15.9,14.7c-7,1.6-14.4,1.1-21.7,1.3
		c-0.6,0-1.7-1.9-1.8-2.9c-0.2-4,0-8-0.2-12c-0.1-2.8,1.1-3.4,3.6-3.1c12.1,1.2,20.8-5.8,22.3-17.9c0.1-1.3-0.2-2.6-0.7-3.8
		c-9.3-25.4-18.6-50.8-27.9-76.2c-2.6-7.1-2.8-7.1,4.6-7.1L87.1,305.6z"/>
	<path class="st1" d="M432.3,389c-9.5,0-9.6,0-8.4-9.4c2.1-16.5,4.3-33,6.7-49.4c1.8-11.9,11.8-21,24.3-22.3c4.7-0.4,9.3-0.4,14-0.1
		c0.9,0,2.1,1.7,2.4,2.9s-0.2,2.6-0.4,3.9c-0.6,3.8,0,8.8-2.1,11c-2,2-7.1,1-10.8,1.2c-5,0.3-7.5,2.9-8.1,7.8
		c-2.1,15.8-4.5,31.6-6.5,47.5c-1,7.9-0.1,7-8,7.1L432.3,389z"/>
	<path class="st1" d="M390.2,306.9c-21.7-4.2-43.8,5.9-54.6,25.2c-11.5,20.8-6.1,43.1,13.3,54.1l0.7,0.4l4.3,1.9l9.2,2.2l11.8-0.1
		l1.4-0.2l4.5-0.8l0.7-0.2l5.2-1.7c0,0,0,0,0-0.1c1.1-0.9,2.9-1.7,3.2-2.8c0.5-3.3,0.9-6.6,1-9.9c0-0.1,0-0.1,0-0.2
		c0.3-2.6,0.6-5.2,0.9-7.8c-0.4-0.7-0.7-1.4-1-2.1c-3.1,1.9-6,4.2-9.4,5.5c-9.4,3.8-18.5,3-26-4.2c-6.9-6.6-7.6-14.8-4.5-23.5
		c3.8-10.4,15.6-18.3,27.4-18.2c10.6,0.1,17.9,5.5,20.3,15.6c0.8,3.7,1.1,7.6,0.7,11.4c-1.2,11.2-2.8,22.5-4.5,33.7
		c-0.4,2.7-0.2,4.1,3,3.9c4-0.2,8-0.2,12,0c2.8,0.2,3.9-0.9,4.2-3.6c1.7-13.2,4.1-26.4,5.2-39.6
		C420.9,326.7,408.5,310.6,390.2,306.9z"/>
	<path class="st0" d="M353.8,388.5l9.2,2.2L353.8,388.5z"/>
	<path class="st0" d="M391.8,367c-0.3-0.7-0.6-1.4-1-2.1C391.1,365.6,391.5,366.3,391.8,367z"/>
	<path class="st0" d="M374.8,390.7l1.4-0.2L374.8,390.7z"/>
	<path class="st0" d="M348.8,386.2l0.7,0.4L348.8,386.2z"/>
	<path class="st0" d="M380.7,389.7l0.7-0.2L380.7,389.7z"/>
</g>
</svg>
