<svg id="Camada_1" data-name="Camada 1" xmlns="http://www.w3.org/2000/svg" viewBox="0 0 1920 1080">
  <g>
    <path d="M1892.67,295.49c-29.1,34.48-57.66,69.43-87.55,103.21-12,13.59-14,25.53-5.17,41.41,14.51,26,27.56,52.77,41.19,79.24,8.34,16.2,13.86,33.15.89,49-12.65,15.48-31,21.36-49.93,17.26-27-5.87-53.65-14-79.91-22.69s-25.67-32.37-25.07-53.85c.37-13.52,11.2-7.91,18.72-6.18,20.56,4.76,41.1,9.65,69.79,16.41-17-30.31-29-53.88-43.08-76.2-11.85-18.84-9.6-33.55,5.72-49.24,21.32-21.84,41.12-45.15,58.19-73.67-30,7.91-60.15,15.22-89.9,23.93-19.61,5.75-32.75,2.3-43-17.16-12.35-23.33-28-44.94-46.65-74.36-7,35.64-13.88,63.73-17.59,92.24C1596.5,366.19,1587,377,1566,382.19c-29.53,7.38-58.28,17.81-96.21,29.72l90.69,37.84c-25.79,16.89-44.18,44.13-74.29,36.47-36.53-9.29-72.76-24.15-98.44-53.73-16.08-18.52-5.37-44.33,22.18-56.38,27.29-11.94,56-20,85.17-26.38,43.58-9.58,51.53-19.28,58.51-62.56,6.63-41.11,10.58-83.38,41.83-115.69h30.85c22.6,4.75,31.63,23.39,43.15,40.38,47.28,69.73,32.82,71.05,122.74,48.58,18-4.49,35.39-11.54,53.64-14,19-2.53,39.66-4.94,48.78,19.33C1894,275.7,1896.5,285.8,1892.67,295.49Z" fill="#fff"/>
    <path d="M293.29,917.41c-1.18-11.13-2.62-22.24-3.45-33.4-1.14-15.19,5.5-20.56,21.43-22.09,45.07-4.35,64.52-37.78,48.76-81-24.6-67.46-49.55-134.79-74.26-202.21-3.46-9.45-6.42-19.09-10.79-32.17,15.27,0,27.57,1.14,39.56-.24,24.36-2.82,35.34,9.25,41.16,31.24,12.51,47.23,26.24,94.14,45.79,141.66C416,670,430.77,620.89,445,571.62c4.21-14.55,9-25.91,27.46-27.82,47.54-4.93,52.31,0,36.63,44.54C478.45,675.45,446.85,762.25,417,849.66c-11.84,34.72-32.16,58.53-68.21,67.75Z" fill="#fff"/>
    <path d="M1891.41,264.21l6.45-.26v30.83a14.52,14.52,0,0,1-5.19.71Z" fill="#fff"/>
    <path d="M598.13,807.17c-39-2.41-67.57-18.5-85.38-52.93-6.95-13.44-7.05-21.39,8.29-28.76,24.42-11.73,45.87-30.66,67.26,7.36,11.12,19.79,45.44,16.29,63.2-1.58s12.14-35.34-2.54-51.56c-18.59-20.55-38.12-40.26-56.61-60.9-40.69-45.42-40.4-82.52.36-127.15,40-43.78,117.52-45.18,157.92-3.69,13,13.31,14.35,23.27-1.67,34.6-19.56,13.84-35.43,39.06-61.35,5C674.3,510,651.07,512.72,636,529.76s-.41,29.73,11.18,41.61c15.78,16.16,31.8,32.1,47.24,48.58C748,677.22,737.94,747.09,670.28,787.1,647.71,800.44,622.9,806.2,598.13,807.17Z" fill="#fff"/>
    <path d="M1229.51,726.51c5.64,57-5.68,72.64-52.93,75-60.74,3.06-101.79-19.38-122.8-67.11-18.86-42.88-5.24-103.7,33.49-141.29,42-40.8,92.24-56.71,149.61-40.75,51.62,14.35,82.64,57,79.36,110.12-2.32,37.74-9.24,75.17-13.46,112.81-3.8,33.93-29.79,20.92-47.3,21.25-21.84.41-11.51-18.07-10.76-27.81,2.5-32.62,9.14-65,10.45-97.59,1.46-36.29-16.35-59.12-46.34-66.55-32.68-8.1-74.26,10.08-92.71,40.55-17.3,28.56-14.63,59.79,7,81.94,23.15,23.69,54.15,27.16,87.63,9.74C1216.91,733.64,1222.92,730.16,1229.51,726.51Z" fill="#fff"/>
    <path d="M1719.48,792.28c-49.94,15.5-82.91,4-106.43-39.81-14.67-27.33-31.34-54.94-58.5-78.21-11.63,33.36-11.35,66-17,97.46-4.54,25.5-19.2,32.55-53.29,25.38-24.12-5.07-11.25-22.86-9.83-34.41,8.15-66.14,20.8-131.87,25.9-198.2,3.82-49.65,28.66-76.17,76.84-92-4.89,43.77-9.57,85.63-14.24,127.48l5.34,3.7,92.72-97c16.63,34.08,16.81,58.59-12,84.35-48.31,43.14-46.53,45.1-8.52,95.81C1666.27,721.2,1692,755.6,1719.48,792.28Z" fill="#fff"/>
    <path d="M1441.87,552.64c11.17,3.11,32.07-9.18,31.23,18.53-.66,21.81-.61,42.39-32.42,38.27-20.19-2.62-29.74,8.95-32.31,28.3-5.94,44.58-14.48,88.93-18,133.69-2.64,33.28-24.38,25.79-43.55,25.69-24.25-.14-17.69-18.44-16.08-31.26,5.87-46.65,12.08-93.3,20-139.64C1359.21,576,1388.34,553.12,1441.87,552.64Z" fill="#fff"/>
    <path d="M261.74,552.14c-2.18-43.92-28.53-77.69-71.37-84.12a501.91,501.91,0,0,0-143.94-.63V806.45c68.86,3.71,68.32,3.7,69-64.32.58-55.44-11.72-53.68,52.84-59,61.23-5,91.63-38.72,93.75-100.23C262.4,572.66,262.25,562.38,261.74,552.14ZM172.06,616.4c-12,4.76-25.93,5-39.06,6.79-13.79,1.9-18.07-5.86-17.78-18.2.26-11.26.06-22.52,0-33.78,0-2.05-.56-4.28.06-6.11,4.75-14-12.78-38.29,16.45-40.82,25-2.15,50.63-.5,61.59,28.43C203.14,578.51,193.72,607.85,172.06,616.4Z" fill="#fff"/>
    <path d="M984.87,574.86c-77-62.68-210.14-12.8-228.64,86.75C745.37,720,738.54,779.2,729.41,838c-5.91,38.07-6.3,36.82,31.37,36.82,17.86,0,23.29-8,25.07-23,1.69-14.26,5.09-28.43,5.45-42.7.59-23.62,10.24-23.21,29.25-16.16,94.34,35,198.68-34.76,203-141.43C1023.18,624.69,1011.28,596.37,984.87,574.86ZM878.53,747.12c-38.26-.76-67.33-28.65-67.3-64.56,0-42.34,42.48-80.81,88.36-80.1,34.84.53,65.09,30.8,64.56,64.59C963.5,708.51,921.3,748,878.53,747.12Z" fill="#fff"/>
  </g>
</svg>
